<svg xmlns="http://www.w3.org/2000/svg" viewBox="0 0 24 24" fill="currentColor">
  <g>
    <path d="M19.14 12.94c.04-.31.06-.63.06-.94s-.02-.63-.06-.94l2.03-1.58a.5.5 0 0 0 .12-.64l-1.92-3.32a.5.5 0 0 0-.6-.22l-2.39.96a7.14 7.14 0 0 0-1.63-.94L14.4 1.5a.5.5 0 0 0-.5-.5h-3.8a.5.5 0 0 0-.5.5l-.35 2.82c-.57.22-1.11.52-1.63.94l-2.39-.96a.5.5 0 0 0-.6.22L2.7 7.84a.5.5 0 0 0 .12.64l2.03 1.58c-.04.31-.06.63-.06.94s.02.63.06.94L2.82 13.52a.5.5 0 0 0-.12.64l1.92 3.32c.14.24.43.34.69.22l2.39-.96c.52.42 1.06.72 1.63.94l.35 2.82c.03.26.24.46.5.46h3.8c.26 0 .47-.2.5-.46l.35-2.82c.57-.22 1.11-.52 1.63-.94l2.39.96c.26.12.55.02.69-.22l1.92-3.32a.5.5 0 0 0-.12-.64l-2.03-1.58ZM12 15.5A3.5 3.5 0 1 1 12 8.5a3.5 3.5 0 0 1 0 7Z"/>
  </g>
</svg>
